<svg xmlns="http://www.w3.org/2000/svg" version="1.1" xmlns:xlink="http://www.w3.org/1999/xlink" xmlns:svgjs="http://svgjs.dev/svgjs" width="100%" height="100%" viewBox="0 0 1000 600"><rect width="1000" height="600" x="0" y="0" fill="#2c3333"/><g><rect width="333.3333333333333" height="333.3333333333333" rx="13.333333333333334" ry="13.333333333333334" y="251.97247498089448" fill="#395b64" transform="matrix(0.5440690145877619,0,0,0.5440690145877619,0,72.23140089955436)" x="229.75021362304688"/><path d="M274.28337219990414 493.6391543562384L255.03123962823895 493.6391543562384L255.03123962823895 343.6391539021979L274.28337219990414 343.6391539021979L320.31590556677594 409.8462558681253L366.467462937182 343.6391539021979L385.6898395079636 343.6391539021979L385.6898395079636 493.6391543562384L366.467462937182 493.6391543562384L366.467462937182 373.66295879371285L327.63588178413244 427.6403443964959L312.9066613467688 427.6403443964959L274.28337219990414 373.8712507998978L274.28337219990414 493.6391543562384ZM465.6144578812135 493.6391543562384L412.6785323093552 343.6391539021979L431.7223728748354 343.6391539021979L475.2554021674879 468.5250896105113L518.550383453072 343.6391539021979L537.8025160247372 343.6391539021979L484.86659045287877 493.6391543562384L465.6144578812135 493.6391543562384Z " fill="#e7f6f2" transform="matrix(0.5440690145877619,0,0,0.5440690145877619,0,72.23140089955436)"/><path d="M665.2615351995914 490.46439663025427L646.4168750054166 490.46439663025427L646.4168750054166 343.6391539118077L665.2615351995914 343.6391539118077L710.3197876267759 408.4449791545261L755.4945449083294 343.6391539118077L774.3100788889118 343.6391539118077L774.3100788889118 490.46439663025427L755.4945449083294 490.46439663025427L755.4945449083294 373.0275034263708L717.4848361704653 425.86245488268145L703.0673604423099 425.86245488268145L665.2615351995914 373.2313869215164L665.2615351995914 490.46439663025427ZM819.1644478209506 477.56148400889504Q803.6984284034751 461.4838141059824 803.6984284034751 438.03721216423486Q803.6984284034751 414.59061022248727 819.2227002481351 398.5129403195746Q834.7469720927953 382.43527041666204 859.0091080151254 382.43527041666204L859.0091080151254 382.43527041666204Q883.1838652966788 382.43527041666204 898.8828944228925 398.60031896035133Q914.6110497626984 414.7944937176329 914.6110497626984 438.03721216423486Q914.6110497626984 461.2799306108368 898.8828944228925 477.47410536811833Q883.1838652966788 493.6391539118077 859.0091080151254 493.6391539118077L859.0091080151254 493.6391539118077Q834.6304672384264 493.6391539118077 819.1644478209506 477.56148400889504ZM831.1061953937661 409.81391119336104Q820.6207585005624 421.2313869215164 820.6207585005624 438.03721216423486Q820.6207585005624 454.8430374069533 831.1061953937661 466.2605131351086Q841.5916322869701 477.677988863264 859.0091080151254 477.677988863264L859.0091080151254 477.677988863264Q876.2227002481351 477.677988863264 886.7955157821158 466.2605131351086Q897.3974575296885 454.8430374069533 897.3974575296885 438.03721216423486Q897.3974575296885 421.2313869215164 886.7955157821158 409.81391119336104Q876.2227002481351 398.39643546520574 859.0091080151254 398.39643546520574L859.0091080151254 398.39643546520574Q841.5916322869701 398.39643546520574 831.1061953937661 409.81391119336104ZM964.8828944228925 490.46439663025427L923.931438112213 385.61002769821545L942.8634769471643 385.61002769821545L974.931438112213 472.02750342637074L1007.1741565588148 385.61002769821545L1026.1061953937665 385.61002769821545L984.950855587941 490.46439663025427L964.8828944228925 490.46439663025427ZM1070.2615351995914 490.46439663025427L1052.4362924811448 490.46439663025427L1052.4362924811448 385.61002769821545L1070.2615351995914 385.61002769821545L1070.2615351995914 490.46439663025427ZM1070.2615351995914 359.804202455497L1052.4362924811448 359.804202455497L1052.4362924811448 343.6391539118077L1070.2615351995914 343.6391539118077L1070.2615351995914 359.804202455497ZM1098.193574034543 437.62944517394357L1098.193574034543 437.62944517394357Q1098.193574034543 412.43527041666204 1111.6207585005623 397.43527041666204Q1125.0188167529896 382.43527041666204 1147.0382342287176 382.43527041666204L1147.0382342287176 382.43527041666204Q1190.8731856850281 382.43527041666204 1190.8731856850281 444.27022187297274L1190.8731856850281 444.27022187297274L1115.6110497626983 444.27022187297274Q1116.6304672384263 457.28963934870086 1125.1353216073585 467.4838141059824Q1133.6401759762907 477.677988863264 1151.0285254908536 477.677988863264L1151.0285254908536 477.677988863264Q1171.212991510271 477.677988863264 1185.6595934520187 471.0080859506426L1185.6595934520187 471.0080859506426L1185.6595934520187 487.4935228438465Q1169.8731856850281 493.52264905743874 1153.300370151048 493.6391539118077L1153.300370151048 493.6391539118077Q1138.8537682093001 493.6391539118077 1128.047942966582 489.12459080501156Q1117.2421177238634 484.6391539118077 1110.8634769471641 476.7459500283125Q1104.4557099568729 468.85274614481733 1101.339205102504 459.03721216423486Q1098.193574034543 449.1925519700601 1098.193574034543 437.62944517394357ZM1116.222700248135 430.46439663025427L1116.222700248135 430.46439663025427L1172.8440594714361 430.46439663025427Q1171.4168750054168 416.4255616787979 1165.06736044231 407.4255616787979Q1158.7178458792032 398.39643546520574 1146.6304672384267 398.39643546520574L1146.6304672384267 398.39643546520574Q1134.6595934520187 398.39643546520574 1126.2712439374554 407.22167818365233Q1117.8537682093001 416.0177946885067 1116.222700248135 430.46439663025427ZM1309.9702730636695 490.46439663025427L1258.1547390830865 343.6391539118077L1276.7955157821161 343.6391539118077L1319.3780400539604 465.88187235840957L1361.7858070442517 343.6391539118077L1380.6013410248343 343.6391539118077L1328.8149332578441 490.46439663025427L1309.9702730636695 490.46439663025427ZM1401.310078888912 458.4255616787979L1401.310078888912 458.4255616787979L1401.310078888912 385.61002769821545L1418.6984284034752 385.61002769821545L1418.6984284034752 458.4255616787979Q1418.6984284034752 467.2216781836523 1426.4460012190093 472.02750342637074Q1434.164447820951 476.8333286690892 1444.5042536461938 476.8333286690892L1444.5042536461938 476.8333286690892Q1454.960564325805 476.8333286690892 1462.6207585005623 472.02750342637074Q1470.310078888912 467.2216781836523 1470.310078888912 458.4255616787979L1470.310078888912 458.4255616787979L1470.310078888912 385.61002769821545L1487.9314381122126 385.61002769821545L1487.9314381122126 458.4255616787979Q1487.9314381122126 474.79449371763286 1474.5625060733782 484.2313869215164Q1461.1935740345434 493.6391539118077 1444.4460012190093 493.6391539118077Q1427.7275546170672 493.6391539118077 1414.5042536461938 484.3187655622931Q1401.310078888912 474.9983772127785 1401.310078888912 458.4255616787979ZM1515.5722148112422 437.62944517394357L1515.5722148112422 437.62944517394357Q1515.5722148112422 412.43527041666204 1528.9993992772615 397.43527041666204Q1542.3974575296888 382.43527041666204 1564.4168750054168 382.43527041666204L1564.4168750054168 382.43527041666204Q1608.2518264617274 382.43527041666204 1608.2518264617274 444.27022187297274L1608.2518264617274 444.27022187297274L1532.9896905393975 444.27022187297274Q1534.0091080151255 457.28963934870086 1542.5139623840578 467.4838141059824Q1550.9896905393975 477.677988863264 1568.4071662675528 477.677988863264L1568.4071662675528 477.677988863264Q1588.5916322869703 477.677988863264 1603.0091080151255 471.0080859506426L1603.0091080151255 471.0080859506426L1603.0091080151255 487.4935228438465Q1587.2518264617274 493.52264905743874 1570.6498847141547 493.6391539118077L1570.6498847141547 493.6391539118077Q1556.2324089859994 493.6391539118077 1545.4265837432808 489.12459080501156Q1534.6207585005627 484.6391539118077 1528.2129915102714 476.7459500283125Q1521.8343507335721 468.85274614481733 1518.6887196656112 459.03721216423486Q1515.5722148112422 449.1925519700601 1515.5722148112422 437.62944517394357ZM1533.6013410248343 430.46439663025427L1533.6013410248343 430.46439663025427L1590.2227002481354 430.46439663025427Q1588.7955157821157 416.4255616787979 1582.4460012190093 407.4255616787979Q1576.0964866559025 398.39643546520574 1564.0091080151255 398.39643546520574L1564.0091080151255 398.39643546520574Q1552.038234228718 398.39643546520574 1543.6207585005623 407.22167818365233Q1535.2324089859994 416.0177946885067 1533.6013410248343 430.46439663025427Z " fill="#e7f6f2" transform="matrix(0.5440690145877619,0,0,0.5440690145877619,0,72.23140089955436)"/></g></svg>